<?xml version="1.0" encoding="UTF-8" standalone="no"?>
<!-- Created with Inkscape (http://www.inkscape.org/) -->

<svg
   xmlns:dc="http://purl.org/dc/elements/1.1/"
   xmlns:cc="http://creativecommons.org/ns#"
   xmlns:rdf="http://www.w3.org/1999/02/22-rdf-syntax-ns#"
   xmlns:svg="http://www.w3.org/2000/svg"
   xmlns="http://www.w3.org/2000/svg"
   xmlns:sodipodi="http://sodipodi.sourceforge.net/DTD/sodipodi-0.dtd"
   xmlns:inkscape="http://www.inkscape.org/namespaces/inkscape"
   width="1280"
   height="720"
   viewBox="0 0 338.66666 190.5"
   version="1.1"
   id="svg1945"
   inkscape:version="0.92.4 (5da689c313, 2019-01-14)"
   sodipodi:docname="fondo720.svg"
   inkscape:export-filename="/home/cabral/proyectos/superjuego/nuevo/demos/super squad/graficos/fondo720.png"
   inkscape:export-xdpi="96"
   inkscape:export-ydpi="96">
  <defs
     id="defs1939">
    <filter
       inkscape:collect="always"
       style="color-interpolation-filters:sRGB"
       id="filter2881"
       x="-0.084938496"
       width="1.1698771"
       y="-0.080766544"
       height="1.1615331">
      <feGaussianBlur
         inkscape:collect="always"
         stdDeviation="6.820724"
         id="feGaussianBlur2883" />
    </filter>
    <filter
       inkscape:collect="always"
       style="color-interpolation-filters:sRGB"
       id="filter3127"
       x="-0.046330415"
       width="1.0926608"
       y="-0.076114342"
       height="1.1522287">
      <feGaussianBlur
         inkscape:collect="always"
         stdDeviation="5.0742891"
         id="feGaussianBlur3129" />
    </filter>
  </defs>
  <sodipodi:namedview
     id="base"
     pagecolor="#ffffff"
     bordercolor="#666666"
     borderopacity="1.0"
     inkscape:pageopacity="0.0"
     inkscape:pageshadow="2"
     inkscape:zoom="0.35928031"
     inkscape:cx="788.17123"
     inkscape:cy="-6.1745522"
     inkscape:document-units="mm"
     inkscape:current-layer="layer1"
     showgrid="false"
     units="px"
     inkscape:window-width="1366"
     inkscape:window-height="707"
     inkscape:window-x="0"
     inkscape:window-y="28"
     inkscape:window-maximized="1"
     fit-margin-top="0"
     fit-margin-left="0"
     fit-margin-right="0"
     fit-margin-bottom="0"
     inkscape:snap-global="true"
     showguides="true"
     inkscape:guide-bbox="true">
    <sodipodi:guide
       position="204.26614,-0.046026621"
       orientation="0,1"
       id="guide837"
       inkscape:locked="false" />
  </sodipodi:namedview>
  <metadata
     id="metadata1942">
    <rdf:RDF>
      <cc:Work
         rdf:about="">
        <dc:format>image/svg+xml</dc:format>
        <dc:type
           rdf:resource="http://purl.org/dc/dcmitype/StillImage" />
        <dc:title></dc:title>
      </cc:Work>
    </rdf:RDF>
  </metadata>
  <g
     inkscape:label="Capa 1"
     inkscape:groupmode="layer"
     id="layer1"
     transform="translate(-4.4729882e-7,-106.49998)">
    <rect
       style="opacity:1;fill:#003380;fill-opacity:1;stroke:#000000;stroke-width:0;stroke-linecap:butt;stroke-linejoin:round;stroke-miterlimit:4;stroke-dasharray:none;stroke-dashoffset:0;stroke-opacity:1"
       id="rect2490"
       width="338.66666"
       height="190.5"
       x="9.4729882e-07"
       y="106.49998"
       inkscape:export-filename="/home/cabral/proyectos/superjuego/nuevo/demos/super squad/data/fondo720.png"
       inkscape:export-xdpi="96"
       inkscape:export-ydpi="96" />
    <path
       style="opacity:1;fill:#00112b;fill-opacity:1;stroke:#000000;stroke-width:0;stroke-linecap:butt;stroke-linejoin:round;stroke-miterlimit:4;stroke-dasharray:none;stroke-dashoffset:0;stroke-opacity:1"
       d="m 63.066436,256.98124 v 8.40931 H 45.548125 v 10.74456 h -5.606376 v -7.70805 H 32.000633 V 258.38323 H 20.555335 v 13.31391 h -5.839953 v -5.3728 H 9.4729882e-7 v 14.48232 H 103.7053 v 0.046 h 104.64374 104.64373 v -0.046 h 25.67389 v -8.17521 h -4.67153 v -5.60586 h -8.17523 v 5.60586 h -8.64238 v -3.03651 h -8.85682 v -2.52336 h -0.25267 v -10.09034 h -10.97868 v 8.40931 h -14.69572 v -8.36331 h -10.97815 v 8.4093 h -5.39191 v -7.05331 h -11.44531 v 7.05331 h -0.6811 v 6.2606 h -5.15886 v -5.3728 h -8.38863 v -7.89512 h -11.44581 v 13.31391 h -5.83944 v -5.37228 h -14.71538 v 6.30659 h -4.67207 v -5.60586 h -8.17521 v 5.60586 h -8.64185 v -3.0365 h -9.11004 v -12.6137 h -10.97814 v 8.4093 h -17.51831 v 10.74457 h -5.60586 v -7.70806 h -7.94163 v -10.04383 h -11.4453 v 13.31391 h -5.83995 v -5.37228 H 103.7053 v 6.2606 h -3.733621 v -5.60586 h -8.175214 v 5.60586 h -8.64185 v -3.03651 h -9.110038 v -12.6137 z"
       id="rect2530"
       inkscape:connector-curvature="0" />
    <g
       id="g825"
       transform="translate(38.294148,-5.1549815)">
      <path
         inkscape:connector-curvature="0"
         id="path2496"
         d="M 76.872657,131.27033 A 51.267142,51.267142 0 0 0 28.13319,182.44721 51.267142,51.267142 0 0 0 79.400897,233.71492 51.267142,51.267142 0 0 0 125.54598,204.6367 44.768489,44.768489 0 0 1 94.564418,217.10711 44.768489,44.768489 0 0 1 49.795506,172.3382 44.768489,44.768489 0 0 1 76.872657,131.27033 Z"
         style="opacity:1;fill:#ffffff;fill-opacity:1;stroke:#000000;stroke-width:0;stroke-linecap:butt;stroke-linejoin:round;stroke-miterlimit:4;stroke-dasharray:none;stroke-dashoffset:0;stroke-opacity:1" />
      <path
         inkscape:connector-curvature="0"
         style="opacity:1;fill:#ffffff;fill-opacity:1;stroke:#000000;stroke-width:0;stroke-linecap:butt;stroke-linejoin:round;stroke-miterlimit:4;stroke-dasharray:none;stroke-dashoffset:0;stroke-opacity:1;filter:url(#filter2881)"
         d="M 187.85547,53.035156 A 101.42857,101.42857 0 0 0 91.427734,154.28516 101.42857,101.42857 0 0 0 192.85742,255.71484 a 101.42857,101.42857 0 0 0 91.29492,-57.52929 88.571424,88.571424 0 0 1 -61.29492,24.67187 88.571424,88.571424 0 0 1 -88.57226,-88.57226 88.571424,88.571424 0 0 1 53.57031,-81.250004 z"
         transform="matrix(0.50545071,0,0,0.50545071,-18.079023,104.46367)"
         id="path2559" />
    </g>
    <g
       id="g3133"
       transform="matrix(1.452928,0,0,1.452928,12.080728,-112.43609)">
      <path
         id="path2501"
         transform="matrix(0.26458333,0,0,0.26458333,0,169.99997)"
         d="M 450,72.857422 A 54.285711,48.571429 0 0 0 397.79492,108.2832 52.857142,51.42857 0 0 0 355.71484,158.57227 52.857142,51.42857 0 0 0 408.57227,210 a 52.857142,51.42857 0 0 0 9.81054,-0.92969 50.714286,47.857145 0 0 0 43.75977,23.78711 50.714286,47.857145 0 0 0 22.60742,-5.03906 45.714288,32.142857 0 0 0 20.96484,3.60937 45.714288,32.142857 0 0 0 31.74024,-9.01757 59.285712,48.571429 0 0 0 16.11719,1.875 59.285712,48.571429 0 0 0 59.28515,-48.57032 59.285712,48.571429 0 0 0 -4.49804,-18.45898 33.571429,30 0 0 0 10.21289,-21.54102 33.571429,30 0 0 0 -29.1211,-29.70312 A 55.714287,45 0 0 0 535.71484,72.857422 55.714287,45 0 0 0 491.67969,90.376953 54.285711,48.571429 0 0 0 450,72.857422 Z"
         style="opacity:1;fill:#3771c8;fill-opacity:1;stroke:#000000;stroke-width:0;stroke-linecap:butt;stroke-linejoin:round;stroke-miterlimit:4;stroke-dasharray:none;stroke-dashoffset:0;stroke-opacity:1"
         inkscape:connector-curvature="0" />
      <path
         style="opacity:1;fill:#3771c8;fill-opacity:1;stroke:#000000;stroke-width:0;stroke-linecap:butt;stroke-linejoin:round;stroke-miterlimit:4;stroke-dasharray:none;stroke-dashoffset:0;stroke-opacity:1;filter:url(#filter3127)"
         d="M 450,72.857422 A 54.285711,48.571429 0 0 0 397.79492,108.2832 52.857142,51.42857 0 0 0 355.71484,158.57227 52.857142,51.42857 0 0 0 408.57227,210 a 52.857142,51.42857 0 0 0 9.81054,-0.92969 50.714286,47.857145 0 0 0 43.75977,23.78711 50.714286,47.857145 0 0 0 22.60742,-5.03906 45.714288,32.142857 0 0 0 20.96484,3.60937 45.714288,32.142857 0 0 0 31.74024,-9.01757 59.285712,48.571429 0 0 0 16.11719,1.875 59.285712,48.571429 0 0 0 59.28515,-48.57032 59.285712,48.571429 0 0 0 -4.49804,-18.45898 33.571429,30 0 0 0 10.21289,-21.54102 33.571429,30 0 0 0 -29.1211,-29.70312 A 55.714287,45 0 0 0 535.71484,72.857422 55.714287,45 0 0 0 491.67969,90.376953 54.285711,48.571429 0 0 0 450,72.857422 Z"
         transform="matrix(0.26458333,0,0,0.26458333,0,169.99997)"
         id="path2885"
         inkscape:connector-curvature="0" />
    </g>
    <rect
       style="opacity:1;fill:#00112b;fill-opacity:1;stroke:none;stroke-width:5.00384808;stroke-linecap:butt;stroke-linejoin:round;stroke-miterlimit:4;stroke-dasharray:none;stroke-dashoffset:0;stroke-opacity:1"
       id="rect859"
       width="338.66666"
       height="16.19334"
       x="4.4902166e-07"
       y="280.80664" />
  </g>
</svg>
