<?xml version="1.0" encoding="UTF-8" standalone="no"?>
<!-- Created with Inkscape (http://www.inkscape.org/) -->

<svg
   xmlns:dc="http://purl.org/dc/elements/1.1/"
   xmlns:cc="http://creativecommons.org/ns#"
   xmlns:rdf="http://www.w3.org/1999/02/22-rdf-syntax-ns#"
   xmlns:svg="http://www.w3.org/2000/svg"
   xmlns="http://www.w3.org/2000/svg"
   xmlns:sodipodi="http://sodipodi.sourceforge.net/DTD/sodipodi-0.dtd"
   xmlns:inkscape="http://www.inkscape.org/namespaces/inkscape"
   width="640"
   height="480"
   viewBox="0 0 169.33333 127"
   version="1.1"
   id="svg1945"
   inkscape:version="0.92.4 (5da689c313, 2019-01-14)"
   sodipodi:docname="fondo.svg"
   inkscape:export-filename="/home/cabral/proyectos/superjuego/nuevo/demos/super squad/graficos/fondo.png"
   inkscape:export-xdpi="96"
   inkscape:export-ydpi="96">
  <defs
     id="defs1939">
    <filter
       inkscape:collect="always"
       style="color-interpolation-filters:sRGB"
       id="filter2881"
       x="-0.084938493"
       width="1.169877"
       y="-0.080766544"
       height="1.1615331">
      <feGaussianBlur
         inkscape:collect="always"
         stdDeviation="6.820724"
         id="feGaussianBlur2883" />
    </filter>
    <filter
       inkscape:collect="always"
       style="color-interpolation-filters:sRGB"
       id="filter3127"
       x="-0.046330415"
       width="1.0926608"
       y="-0.076114338"
       height="1.1522287">
      <feGaussianBlur
         inkscape:collect="always"
         stdDeviation="5.0742891"
         id="feGaussianBlur3129" />
    </filter>
  </defs>
  <sodipodi:namedview
     id="base"
     pagecolor="#ffffff"
     bordercolor="#666666"
     borderopacity="1.0"
     inkscape:pageopacity="0.0"
     inkscape:pageshadow="2"
     inkscape:zoom="0.49497475"
     inkscape:cx="78.332973"
     inkscape:cy="174.05042"
     inkscape:document-units="mm"
     inkscape:current-layer="layer1"
     showgrid="false"
     units="px"
     inkscape:window-width="1366"
     inkscape:window-height="707"
     inkscape:window-x="0"
     inkscape:window-y="28"
     inkscape:window-maximized="1" />
  <metadata
     id="metadata1942">
    <rdf:RDF>
      <cc:Work
         rdf:about="">
        <dc:format>image/svg+xml</dc:format>
        <dc:type
           rdf:resource="http://purl.org/dc/dcmitype/StillImage" />
        <dc:title></dc:title>
      </cc:Work>
    </rdf:RDF>
  </metadata>
  <g
     inkscape:label="Capa 1"
     inkscape:groupmode="layer"
     id="layer1"
     transform="translate(0,-169.99997)">
    <rect
       style="opacity:1;fill:#003380;fill-opacity:1;stroke:#000000;stroke-width:0;stroke-linecap:butt;stroke-linejoin:round;stroke-miterlimit:4;stroke-dasharray:none;stroke-dashoffset:0;stroke-opacity:1"
       id="rect2490"
       width="169.33333"
       height="127"
       x="6.2781959e-07"
       y="169.99998" />
    <path
       style="opacity:1;fill:#ffffff;fill-opacity:1;stroke:#000000;stroke-width:0;stroke-linecap:butt;stroke-linejoin:round;stroke-miterlimit:4;stroke-dasharray:none;stroke-dashoffset:0;stroke-opacity:1"
       d="M 187.85547 53.035156 A 101.42857 101.42857 0 0 0 91.427734 154.28516 A 101.42857 101.42857 0 0 0 192.85742 255.71484 A 101.42857 101.42857 0 0 0 284.15234 198.18555 A 88.571424 88.571424 0 0 1 222.85742 222.85742 A 88.571424 88.571424 0 0 1 134.28516 134.28516 A 88.571424 88.571424 0 0 1 187.85547 53.035156 z "
       transform="matrix(0.26458333,0,0,0.26458333,0,169.99997)"
       id="path2496" />
    <path
       style="opacity:1;fill:#00112b;fill-opacity:1;stroke:#000000;stroke-width:0;stroke-linecap:butt;stroke-linejoin:round;stroke-miterlimit:4;stroke-dasharray:none;stroke-dashoffset:0;stroke-opacity:1"
       d="M 385.71484 334.28516 L 385.71484 385.71484 L 278.57227 385.71484 L 278.57227 451.42773 L 244.28516 451.42773 L 244.28516 404.28516 L 195.71484 404.28516 L 195.71484 342.85742 L 125.71484 342.85742 L 125.71484 424.28516 L 90 424.28516 L 90 391.42773 L 0 391.42773 L 0 480 L 640 480 L 640 430 L 611.42773 430 L 611.42773 395.71484 L 561.42773 395.71484 L 561.42773 430 L 508.57227 430 L 508.57227 411.42773 L 452.85742 411.42773 L 452.85742 334.28516 L 385.71484 334.28516 z "
       transform="matrix(0.26458333,0,0,0.26458333,0,169.99997)"
       id="rect2530" />
    <path
       id="path2559"
       transform="matrix(0.26458333,0,0,0.26458333,0,169.99997)"
       d="M 187.85547 53.035156 A 101.42857 101.42857 0 0 0 91.427734 154.28516 A 101.42857 101.42857 0 0 0 192.85742 255.71484 A 101.42857 101.42857 0 0 0 284.15234 198.18555 A 88.571424 88.571424 0 0 1 222.85742 222.85742 A 88.571424 88.571424 0 0 1 134.28516 134.28516 A 88.571424 88.571424 0 0 1 187.85547 53.035156 z "
       style="opacity:1;fill:#ffffff;fill-opacity:1;stroke:#000000;stroke-width:0;stroke-linecap:butt;stroke-linejoin:round;stroke-miterlimit:4;stroke-dasharray:none;stroke-dashoffset:0;stroke-opacity:1;filter:url(#filter2881)" />
    <g
       id="g3133"
       transform="translate(-29.104167,15.119048)">
      <path
         id="path2501"
         transform="matrix(0.26458333,0,0,0.26458333,0,169.99997)"
         d="M 450,72.857422 A 54.285711,48.571429 0 0 0 397.79492,108.2832 52.857142,51.42857 0 0 0 355.71484,158.57227 52.857142,51.42857 0 0 0 408.57227,210 a 52.857142,51.42857 0 0 0 9.81054,-0.92969 50.714286,47.857145 0 0 0 43.75977,23.78711 50.714286,47.857145 0 0 0 22.60742,-5.03906 45.714288,32.142857 0 0 0 20.96484,3.60937 45.714288,32.142857 0 0 0 31.74024,-9.01757 59.285712,48.571429 0 0 0 16.11719,1.875 59.285712,48.571429 0 0 0 59.28515,-48.57032 59.285712,48.571429 0 0 0 -4.49804,-18.45898 33.571429,30 0 0 0 10.21289,-21.54102 33.571429,30 0 0 0 -29.1211,-29.70312 A 55.714287,45 0 0 0 535.71484,72.857422 55.714287,45 0 0 0 491.67969,90.376953 54.285711,48.571429 0 0 0 450,72.857422 Z"
         style="opacity:1;fill:#3771c8;fill-opacity:1;stroke:#000000;stroke-width:0;stroke-linecap:butt;stroke-linejoin:round;stroke-miterlimit:4;stroke-dasharray:none;stroke-dashoffset:0;stroke-opacity:1"
         inkscape:connector-curvature="0" />
      <path
         style="opacity:1;fill:#3771c8;fill-opacity:1;stroke:#000000;stroke-width:0;stroke-linecap:butt;stroke-linejoin:round;stroke-miterlimit:4;stroke-dasharray:none;stroke-dashoffset:0;stroke-opacity:1;filter:url(#filter3127)"
         d="M 450,72.857422 A 54.285711,48.571429 0 0 0 397.79492,108.2832 52.857142,51.42857 0 0 0 355.71484,158.57227 52.857142,51.42857 0 0 0 408.57227,210 a 52.857142,51.42857 0 0 0 9.81054,-0.92969 50.714286,47.857145 0 0 0 43.75977,23.78711 50.714286,47.857145 0 0 0 22.60742,-5.03906 45.714288,32.142857 0 0 0 20.96484,3.60937 45.714288,32.142857 0 0 0 31.74024,-9.01757 59.285712,48.571429 0 0 0 16.11719,1.875 59.285712,48.571429 0 0 0 59.28515,-48.57032 59.285712,48.571429 0 0 0 -4.49804,-18.45898 33.571429,30 0 0 0 10.21289,-21.54102 33.571429,30 0 0 0 -29.1211,-29.70312 A 55.714287,45 0 0 0 535.71484,72.857422 55.714287,45 0 0 0 491.67969,90.376953 54.285711,48.571429 0 0 0 450,72.857422 Z"
         transform="matrix(0.26458333,0,0,0.26458333,0,169.99997)"
         id="path2885"
         inkscape:connector-curvature="0" />
    </g>
  </g>
</svg>
